<svg xmlns="http://www.w3.org/2000/svg" viewBox="0 0 70.59 83.29"><defs><style>.cls-1,.cls-2{fill:none;stroke:#000;stroke-miterlimit:10;stroke-width:1.5px;}.cls-2{stroke-linecap:square;}</style></defs><g id="Layer_2" data-name="Layer 2"><g id="Layer_1-2" data-name="Layer 1"><path class="cls-1" d="M30.39,82.47c-.7,0-1.43.07-2.17.07h-.45C28.66,82.52,29.54,82.5,30.39,82.47Z"/><path class="cls-1" d="M25,82.43c.89.06,1.8.1,2.74.1H26.26A7,7,0,0,1,25,82.43Z"/><path class="cls-2" d="M34.65,3.63,51.54,6.84V56.15c0,13.81-5.35,25.37-21.15,26.32-.85,0-1.73,0-2.62.06s-1.85,0-2.74-.1C8.72,81.32,1,72,1,72L11.27,60.54a17.27,17.27,0,0,0,6.28,4.88,14.06,14.06,0,0,0,5.83,1.28c8.81,0,10.56-5.39,10.56-11.89,0-12.81.22-51.27.22-51.27l.49-.08L51.54.76,69.83,3.54V49c0,10.44,1.85,32.11-39.44,33.45,15.8-1,21.15-12.51,21.15-26.32V16.85"/><line class="cls-1" x1="51.54" y1="6.84" x2="69.83" y2="3.54"/></g></g></svg>